<?xml version="1.0" encoding="UTF-8"?>
<svg width="324px" height="319px" viewBox="0 0 324 319" version="1.1" xmlns="http://www.w3.org/2000/svg" xmlns:xlink="http://www.w3.org/1999/xlink">
    <!-- Generator: Sketch 61.2 (89653) - https://sketch.com -->
    <title>Group 4</title>
    <desc>Created with Sketch.</desc>
    <defs>
        <linearGradient x1="50%" y1="0%" x2="50%" y2="100%" id="linearGradient-1">
            <stop stop-color="#CB74F5" offset="0%"></stop>
            <stop stop-color="#982AFF" offset="100%"></stop>
        </linearGradient>
        <path d="M128.861093,109.84721 C135.689729,109.493559 142.339698,107.533381 148.273745,104.12504 C154.031323,100.810986 158.979076,96.2495328 162.7562,90.7733117 C168.64391,82.2201408 171.408478,71.890275 170.582888,61.5287288 C170.042227,54.7081858 167.932749,48.1062699 164.420142,42.2415245 C160.999381,36.5189328 156.357542,31.6276214 150.828204,27.9190983 C136.294093,18.1625034 117.401184,17.8888556 102.592386,27.2204433 C96.991294,30.7474033 92.2371824,35.4736917 88.670741,41.0606122 C85.4645038,46.0762089 83.1406503,51.6705078 82.3054505,57.5377265 C80.7374165,68.5530535 97.5577116,70.2457215 100.968697,58.5270316 C103.375847,50.2570909 109.190545,43.4335899 117.338629,40.4903434 C126.346963,37.236358 136.408964,39.2132472 143.528431,45.6358746 C146.510302,48.3203166 148.84249,51.6518231 150.34751,55.3768557 C153.566386,63.4245766 152.592219,72.5505605 147.747689,79.7319333 C142.903159,86.9133062 134.820582,91.2127432 126.177217,91.2061067 L126.177217,91.2988486 L54.3257538,91.5337945 C40.6444561,91.5337945 28.5654727,84.2257401 22.8063859,72.4598963 L22.6030153,72.0703808 C20.2456165,67.7550986 18.8652838,62.9715538 18.5602534,58.0601852 C18.272982,53.112743 18.9405026,48.1561874 20.5261696,43.462625 C21.4102871,40.8019875 22.570091,38.2417071 23.9865519,35.8237915 C27.4253645,29.9501438 32.2107373,25.3130535 37.4644789,22.7502883 L37.5692456,22.6977346 C43.4454245,19.723814 49.9933429,17.7886016 56.6152142,18.852041 C62.6577873,19.8196472 68.1638512,22.8914717 73.1498635,26.3208478 C84.1014755,33.8533598 95.8756821,20.3120159 83.999379,11.3090408 C80.4243659,8.59895891 76.3281398,6.39447369 72.2008005,4.47087828 C68.0979902,2.56469785 63.7554233,1.22825847 59.2929276,0.49843759 C54.702407,-0.202535917 50.0297868,-0.163923015 45.4513986,0.61281915 C40.5,1.48590909 35.6906999,3.03355005 31.1569076,5.21281273 C30.540633,5.50649512 29.9243583,5.80636029 29.3080836,6.11859104 C24.6947529,8.40273563 20.4795618,11.4196491 16.8254403,15.0527184 C12.9489627,18.9196103 9.65989993,23.3369951 7.06364952,28.1633184 C4.23090794,33.3841253 2.20589923,39.0067096 1.05805288,44.8382951 C-0.0785904855,50.6162094 -0.301121283,56.5376682 0.398638989,62.3850448 C1.1002064,68.1279808 2.75956084,73.7116352 5.30726672,78.9023605 C5.62772954,79.555675 5.96154499,80.1997153 6.30871305,80.8344814 C10.4968993,89.3134574 16.9115368,96.4853865 24.8616619,101.577732 C28.8137325,104.109273 33.0812271,106.107038 37.5538387,107.51939 C42.1377667,108.962675 46.8886917,109.80435 51.6880982,110.023419" id="path-2"></path>
        <filter x="-1.5%" y="-2.3%" width="102.9%" height="109.1%" filterUnits="objectBoundingBox" id="filter-3">
            <feOffset dx="0" dy="5" in="SourceAlpha" result="shadowOffsetOuter1"></feOffset>
            <feColorMatrix values="0 0 0 0 0.474509804   0 0 0 0 0.215686275   0 0 0 0 0.709803922  0 0 0 1 0" type="matrix" in="shadowOffsetOuter1"></feColorMatrix>
        </filter>
    </defs>
    <g id="Brand" stroke="none" stroke-width="1" fill="none" fill-rule="evenodd">
        <g id="Poshtiban" transform="translate(-160.000000, -174.000000)">
            <g id="Group-4" transform="translate(160.000000, 174.000000)">
                <path d="M62.0180749,7.81908486 C96.039082,2.60636162 129.991069,0 163.874036,0 C197.050758,0 230.227038,2.49884172 263.402877,7.49652516 L263.402876,7.49652557 C290.489705,11.5769467 311.810805,32.7364122 316.09723,59.7914054 C321.365743,93.0451221 324,126.298839 324,159.552555 C324,192.729119 321.377953,225.905682 316.133859,259.082245 L316.133859,259.082245 C311.840513,286.243937 290.382157,307.457277 263.172955,311.438433 C230.139127,316.271827 197.039487,318.688525 163.874036,318.688525 C129.997781,318.688525 96.1211325,316.167128 62.2440897,311.124334 C35.8900958,307.20139 14.876651,287.081887 9.81244975,260.923211 C3.27081658,227.132992 0,193.342774 0,159.552555 C0,125.686481 3.28551853,91.8204057 9.8565556,57.9543309 L9.8565554,57.9543308 C14.9111352,31.9038345 35.7878507,11.8380987 62.0180749,7.81908486 Z" id="Rectangle" fill="url(#linearGradient-1)"></path>
                <g id="Group" transform="translate(76.637002, 104.711944)" fill-rule="nonzero">
                    <g id="Path">
                        <use fill="black" fill-opacity="1" filter="url(#filter-3)" xlink:href="#path-2"></use>
                        <use fill="#FFFFFF" xlink:href="#path-2"></use>
                    </g>
                </g>
                <path d="M73.7583458,18.471824 C103.805215,14.052505 133.794123,11.8428093 163.724815,11.8428093 C192.946892,11.8428093 222.168469,13.9491136 251.389302,18.1616683 C279.10361,22.1570387 300.931243,43.8312837 305.121953,71.5167268 C309.563034,100.856209 311.783607,130.196121 311.783607,159.536182 C311.783607,188.798519 309.574783,218.060709 305.157201,247.322471 C300.961485,275.114609 278.996916,296.843446 251.161124,300.739041 C222.071237,304.810145 192.925725,306.845715 163.724815,306.845715 C133.811134,306.845715 103.897245,304.709559 73.9833857,300.437299 C46.9971803,296.583162 25.4804231,275.937407 20.5150768,249.133396 C14.9826692,219.268267 12.2163934,189.402361 12.2163934,159.536182 C12.2163934,129.593341 14.9968887,99.650774 20.5577339,69.70899 C25.5156387,43.0136747 46.8955417,22.4228281 73.7583458,18.471824 Z" id="Rectangle" stroke="#F4F4F4" stroke-width="1.36580796" opacity="0.334123884"></path>
            </g>
        </g>
    </g>
</svg>